<?xml version="1.0" encoding="UTF-8" standalone="no"?>
<!-- Generator: Adobe Illustrator 18.1.1, SVG Export Plug-In . SVG Version: 6.00 Build 0)  -->

<svg
   version="1.1"
   id="Capa_1"
   x="0px"
   y="0px"
   viewBox="0 0 103.76304 30.644769"
   xml:space="preserve"
   sodipodi:docname="high-speed-train-svgrepo-com.svg"
   inkscape:version="1.1.1 (3bf5ae0d25, 2021-09-20, custom)"
   width="103.76304"
   height="30.64477"
   xmlns:inkscape="http://www.inkscape.org/namespaces/inkscape"
   xmlns:sodipodi="http://sodipodi.sourceforge.net/DTD/sodipodi-0.dtd"
   xmlns="http://www.w3.org/2000/svg"
   xmlns:svg="http://www.w3.org/2000/svg"><defs
   id="defs39" /><sodipodi:namedview
   id="namedview37"
   pagecolor="#ffffff"
   bordercolor="#666666"
   borderopacity="1.0"
   inkscape:pageshadow="2"
   inkscape:pageopacity="0.0"
   inkscape:pagecheckerboard="0"
   showgrid="false"
   inkscape:zoom="3.3391513"
   inkscape:cx="58.398073"
   inkscape:cy="-13.027263"
   inkscape:window-width="1533"
   inkscape:window-height="932"
   inkscape:window-x="2073"
   inkscape:window-y="0"
   inkscape:window-maximized="0"
   inkscape:current-layer="g4" />
<g
   id="g4"
   transform="translate(-7.8014542,-19.862562)">
	<path
   id="path2"
   style="fill:#ffffff;fill-opacity:1;stroke-width:1.90801"
   d="m 17.98511,19.862562 c -7.699819,0 -7.699941,6.458837 -7.699941,13.939785 0,3.743325 -2.53e-4,7.229017 0.964353,9.780594 1.288693,-0.02287 2.629235,-0.04787 4.036129,-0.07461 5.942174,-0.06491 12.870797,-0.219176 20.296102,-0.257391 3.336119,-0.01579 6.676013,-0.151197 10.012131,-0.145404 2.768042,0.002 7.61006,1.288411 10.094057,-0.287221 5.200567,-3.302178 2.284118,-14.988434 0.06736,-19.344842 -0.200196,-0.393446 -0.390341,-0.774752 -0.577151,-1.14147 -0.354599,-0.750566 -0.753176,-1.381646 -1.105851,-1.954611 -0.106858,-0.18715 -0.213447,-0.346673 -0.320202,-0.514762 z m 36.474139,0.002 c 0.03782,0.04607 0.06981,0.07555 0.107923,0.123068 0.461333,0.521385 1.000473,1.114962 1.444657,1.846446 3.639252,5.968318 4.291072,11.987047 2.628708,18.66967 -0.364106,0.93009 -0.671276,1.834933 -1.102107,2.644714 0.440358,0 0.881401,-0.002 1.321812,-0.002 7.924746,0.03981 15.8475,0.07367 23.274735,0.112031 7.423523,0.03036 14.354067,0.190538 20.296103,0.257368 1.33999,0.01892 2.61845,0.03662 3.84992,0.06351 4.07585,-1.292972 5.28349,-2.671641 5.28349,-3.830908 -0.002,-3.208553 -8.71403,-7.863752 -23.904028,-12.775921 -0.871211,-0.282709 -1.746348,-0.558843 -2.617402,-0.828149 -1.690992,2.175359 -5.626731,3.700378 -10.209536,3.700378 -6.119501,0 -11.080789,-2.726332 -11.080789,-6.087696 0,-1.025599 0.468533,-1.990712 1.28828,-2.838671 -3.322769,-0.674234 -5.885158,-1.051962 -7.219629,-1.051964 z M 19.32924,26.44227 h 0.982987 c 1.873932,0 3.391954,1.522731 3.391954,3.398209 0,1.877401 -1.519921,3.398207 -3.391954,3.398207 H 19.32924 c -1.873962,0 -3.391993,-1.522705 -3.391993,-3.398207 0,-1.875478 1.518031,-3.398209 3.391993,-3.398209 z m 9.483434,0 h 0.986699 c 1.873957,0 3.391999,1.522731 3.391999,3.398209 0,1.877401 -1.519956,3.398207 -3.391999,3.398207 h -0.986699 c -1.873951,0 -3.391991,-1.522705 -3.391991,-3.398207 -0.0011,-1.875478 1.51804,-3.398209 3.391991,-3.398209 z m 9.487152,0 h 0.986695 c 1.872052,0 3.391975,1.522731 3.391975,3.398209 0,1.877401 -1.52187,3.398207 -3.391975,3.398207 h -0.986695 c -1.87206,0 -3.388297,-1.522705 -3.388297,-3.398207 0,-1.875478 1.51813,-3.398209 3.388297,-3.398209 z m 9.487137,0 h 0.986705 c 1.873952,0 3.391974,1.522731 3.391974,3.398209 0,1.877401 -1.519907,3.398207 -3.391974,3.398207 h -0.986705 c -1.87396,0 -3.391991,-1.522705 -3.391991,-3.398207 0,-1.875478 1.518031,-3.398209 3.391991,-3.398209 z M 11.621855,44.407357 c 1.058048,2.062656 2.950837,3.334803 6.363255,3.334803 h 35.762957 c 0.104759,-0.16812 0.209756,-0.325806 0.316499,-0.511033 0.352695,-0.578686 0.756796,-1.217244 1.11329,-1.962066 0.07249,-0.141275 0.150849,-0.294957 0.227123,-0.443918 -6.759977,-0.03635 -13.471297,-0.0607 -19.819488,-0.09706 -7.429118,-0.03432 -14.359609,-0.19044 -20.29984,-0.261107 -1.271539,-0.01784 -2.48948,-0.04263 -3.663796,-0.0597 z m 91.300905,0.06354 c -0.17553,6.44e-4 -0.33503,0.0019 -0.50638,0.0081 -2.37166,0.03041 -4.936566,0.06969 -7.588163,0.119433 -4.001598,0.06112 -8.2508,0.122601 -12.715526,0.141721 -6.519749,0.03271 -13.425548,0.06442 -20.374271,0.100884 -0.966498,0.002 -1.926511,0.01009 -2.893064,0.01424 -0.737756,-0.002 -1.473805,-0.0098 -2.215381,-0.01424 -0.215401,0.324675 -0.430895,0.640171 -0.632988,0.940001 -0.446101,0.737202 -0.975866,1.31751 -1.437223,1.84272 -0.03982,0.046 -0.07558,0.08088 -0.115458,0.126802 h 3.362175 c 0.589092,0 1.734612,-0.0017 3.265397,-0.02238 0.02846,0.07047 0.03998,0.143883 0.07051,0.212603 0.0304,0.06855 0.07553,0.138149 0.115497,0.208886 0.135355,0.254015 0.315464,0.476568 0.517533,0.675169 -1.183827,-0.0082 -2.364507,-0.0172 -3.548369,-0.0262 -6.302408,0.03993 -12.604665,0.08122 -18.516305,0.119429 -5.909757,0.03431 -11.422266,0.19043 -16.151983,0.261111 -4.727818,0.07838 -8.668513,0.242757 -11.427016,0.309593 -2.7585265,0.10907 -4.3302908,0.167937 -4.3302908,0.167937 0,0 1.5736746,0.0552 4.3302908,0.164213 2.758503,0.06491 6.699198,0.235107 11.427016,0.30959 4.727792,0.06856 10.242226,0.224827 16.151983,0.261111 5.91164,0.03982 12.211987,0.07367 18.516305,0.115711 6.304358,-0.03989 12.608531,-0.07562 18.516369,-0.115711 5.909701,-0.03038 11.418461,-0.19052 16.152036,-0.257347 4.72583,-0.07453 8.672276,-0.242694 11.427266,-0.313354 2.7543,-0.107102 4.33003,-0.164213 4.33003,-0.164213 0,0 -1.57573,-0.05875 -4.33003,-0.16789 -2.40593,-0.05909 -5.723449,-0.197649 -9.684745,-0.279765 0.789113,-0.504203 1.314339,-1.38091 1.314339,-2.383599 0,-0.246372 -0.03944,-0.477739 -0.100661,-0.705006 -0.02404,-0.07048 -0.04027,-0.142015 -0.06214,-0.2089 -0.03107,-0.067 -0.04018,-0.14199 -0.07071,-0.208903 2.867317,-0.378134 5.246727,-0.795512 7.204807,-1.230951 z" />
</g>
<g
   id="g6"
   transform="translate(-7.8014542,-19.862562)">
</g>
<g
   id="g8"
   transform="translate(-7.8014542,-19.862562)">
</g>
<g
   id="g10"
   transform="translate(-7.8014542,-19.862562)">
</g>
<g
   id="g12"
   transform="translate(-7.8014542,-19.862562)">
</g>
<g
   id="g14"
   transform="translate(-7.8014542,-19.862562)">
</g>
<g
   id="g16"
   transform="translate(-7.8014542,-19.862562)">
</g>
<g
   id="g18"
   transform="translate(-7.8014542,-19.862562)">
</g>
<g
   id="g20"
   transform="translate(-7.8014542,-19.862562)">
</g>
<g
   id="g22"
   transform="translate(-7.8014542,-19.862562)">
</g>
<g
   id="g24"
   transform="translate(-7.8014542,-19.862562)">
</g>
<g
   id="g26"
   transform="translate(-7.8014542,-19.862562)">
</g>
<g
   id="g28"
   transform="translate(-7.8014542,-19.862562)">
</g>
<g
   id="g30"
   transform="translate(-7.8014542,-19.862562)">
</g>
<g
   id="g32"
   transform="translate(-7.8014542,-19.862562)">
</g>
<g
   id="g34"
   transform="translate(-7.8014542,-19.862562)">
</g>
</svg>
