<?xml version="1.0" encoding="UTF-8" standalone="no"?>
<!-- Generator: Adobe Illustrator 18.1.1, SVG Export Plug-In . SVG Version: 6.00 Build 0)  -->

<svg
   version="1.1"
   id="Capa_1"
   x="0px"
   y="0px"
   viewBox="0 0 75.217887 24.744863"
   xml:space="preserve"
   sodipodi:docname="high-speed-train-svgrepo-com.svg"
   inkscape:version="1.1.1 (3bf5ae0d25, 2021-09-20, custom)"
   width="75.217888"
   height="24.744864"
   xmlns:inkscape="http://www.inkscape.org/namespaces/inkscape"
   xmlns:sodipodi="http://sodipodi.sourceforge.net/DTD/sodipodi-0.dtd"
   xmlns="http://www.w3.org/2000/svg"
   xmlns:svg="http://www.w3.org/2000/svg"><defs
   id="defs39" /><sodipodi:namedview
   id="namedview37"
   pagecolor="#ffffff"
   bordercolor="#666666"
   borderopacity="1.0"
   inkscape:pageshadow="2"
   inkscape:pageopacity="0.0"
   inkscape:pagecheckerboard="0"
   showgrid="false"
   inkscape:zoom="6.6783025"
   inkscape:cx="27.851389"
   inkscape:cy="8.1607564"
   inkscape:window-width="1533"
   inkscape:window-height="932"
   inkscape:window-x="2073"
   inkscape:window-y="0"
   inkscape:window-maximized="0"
   inkscape:current-layer="g4" />
<g
   id="g4"
   transform="translate(-0.14537533,-13.782893)">
	<path
   id="path2"
   style="fill:#ffffff;fill-opacity:1;stroke-width:1.45985"
   d="m 7.5273636,13.782893 c -5.5816046,0 -5.581691,5.215582 -5.581691,11.256528 0,3.022786 -1.944e-4,5.837515 0.6990609,7.897942 0.9341829,-0.01847 1.905937,-0.03868 2.9257992,-0.06022 4.307468,-0.05244 9.3300623,-0.176998 14.7126693,-0.207845 2.418373,-0.01294 4.839445,-0.122082 7.257818,-0.117417 2.006558,0.002 5.516546,1.040411 7.317197,-0.231936 3.769898,-2.666529 1.655743,-12.103337 0.04859,-15.62118 -0.145102,-0.317692 -0.282929,-0.625626 -0.418358,-0.921717 -0.257035,-0.606114 -0.545969,-1.11572 -0.801625,-1.578399 -0.07739,-0.151132 -0.154732,-0.279961 -0.23212,-0.415677 z m 26.4401574,0.002 c 0.02764,0.03705 0.05063,0.06086 0.07827,0.09937 0.334427,0.421026 0.725254,0.900351 1.047242,1.491027 2.638099,4.819492 3.11059,9.679684 1.905549,15.075976 -0.263948,0.751065 -0.486611,1.48173 -0.798927,2.13564 0.319225,0 0.638947,-0.002 0.958172,-0.002 5.744672,0.03231 11.487934,0.05947 16.87193,0.09043 5.381224,0.0247 10.4052,0.153868 14.712668,0.20784 0.971495,0.0154 1.89812,0.02964 2.790845,0.05119 2.954561,-1.044088 3.829991,-2.157368 3.829991,-3.093508 -0.0028,-2.590962 -6.316877,-6.350091 -17.328074,-10.316722 -0.631541,-0.228259 -1.265911,-0.451262 -1.897452,-0.668715 -1.225769,1.756618 -4.078715,2.988089 -7.400869,2.988089 -4.435986,0 -8.032452,-2.201543 -8.032452,-4.915884 0,-0.828172 0.339652,-1.607516 0.933881,-2.292266 -2.408699,-0.544411 -4.266162,-0.849442 -5.233511,-0.849444 z M 8.5017303,19.096321 h 0.7125563 c 1.3584344,0 2.4588594,1.229621 2.4588594,2.7441 0,1.516016 -1.101807,2.744095 -2.4588594,2.744095 H 8.5017303 c -1.3584346,0 -2.4588591,-1.229617 -2.4588591,-2.744095 0,-1.514479 1.1004245,-2.7441 2.4588591,-2.7441 z m 6.8745497,0 h 0.715255 c 1.358436,0 2.458859,1.229621 2.458859,2.7441 0,1.516016 -1.101807,2.744095 -2.458859,2.744095 H 15.37628 c -1.358435,0 -2.45886,-1.229617 -2.45886,-2.744095 -0.0014,-1.514479 1.100425,-2.7441 2.45886,-2.7441 z m 6.877248,0 h 0.715255 c 1.357053,0 2.45886,1.229621 2.45886,2.7441 0,1.516016 -1.103189,2.744095 -2.45886,2.744095 h -0.715255 c -1.357053,0 -2.45616,-1.229617 -2.45616,-2.744095 0,-1.514479 1.100489,-2.7441 2.45616,-2.7441 z m 6.877247,0 h 0.715257 c 1.358434,0 2.458858,1.229621 2.458858,2.7441 0,1.516016 -1.101807,2.744095 -2.458858,2.744095 h -0.715257 c -1.358434,0 -2.458859,-1.229617 -2.458859,-2.744095 0,-1.514479 1.100425,-2.7441 2.458859,-2.7441 z M 2.9146411,33.603056 c 0.7669698,1.665619 2.1390725,2.69289 4.6127225,2.69289 H 33.451997 c 0.07601,-0.135758 0.152034,-0.263074 0.229422,-0.412665 0.255657,-0.467301 0.548603,-0.982939 0.807024,-1.584409 0.05251,-0.114048 0.109365,-0.238158 0.164644,-0.358449 -4.900314,-0.02933 -9.765368,-0.04903 -14.367186,-0.07834 C 14.90053,33.834343 9.8766185,33.708292 5.5705327,33.651228 4.6487875,33.636868 3.765909,33.616808 2.9146411,33.603078 Z m 66.1840649,0.05119 c -0.127138,10e-4 -0.242701,0.0019 -0.367075,0.0056 -1.719117,0.0247 -3.578456,0.0563 -5.500717,0.09643 -2.900666,0.0494 -5.980874,0.09902 -9.217348,0.114454 -4.726192,0.02623 -9.732224,0.052 -14.769349,0.08141 -0.700637,0.002 -1.396545,0.0086 -2.097182,0.01133 -0.534806,-0.002 -1.068382,-0.0071 -1.605952,-0.01133 -0.156158,0.262186 -0.312358,0.516939 -0.458843,0.759073 -0.323371,0.595297 -0.707417,1.063902 -1.041843,1.488017 -0.02902,0.03705 -0.05465,0.06537 -0.08368,0.102388 h 2.437267 c 0.427015,0 1.257402,-0.0017 2.367089,-0.01806 0.02073,0.05701 0.02917,0.116204 0.05128,0.171693 0.02211,0.05548 0.05465,0.111554 0.08367,0.168677 0.09812,0.205118 0.228687,0.384824 0.375172,0.545211 -0.858177,-0.0057 -1.714044,-0.01386 -2.57222,-0.02115 -4.568652,0.03231 -9.137154,0.0656 -13.42251,0.09643 -4.283975,0.02776 -8.280034,0.153801 -11.708596,0.21086 -3.4271802,0.06328 -6.2838184,0.196021 -8.2834673,0.250005 -1.999649,0.08801 -3.13902637,0.135619 -3.13902637,0.135619 0,0 1.14075937,0.0446 3.13902637,0.13258 1.9996489,0.05241 4.8562871,0.189871 8.2834673,0.250014 3.42718,0.05549 7.424621,0.181552 11.708596,0.210859 4.285356,0.03231 8.852476,0.05943 13.42251,0.0934 4.570033,-0.03231 9.139918,-0.06102 13.422508,-0.0934 4.283976,-0.0247 8.277271,-0.153861 11.708597,-0.207839 3.425797,-0.06013 6.286581,-0.195964 8.283466,-0.253034 1.996885,-0.08645 3.139027,-0.13258 3.139027,-0.13258 0,0 -1.142142,-0.04759 -3.139027,-0.135578 -1.743993,-0.04781 -4.148654,-0.159598 -7.020299,-0.225914 0.572118,-0.407156 0.952774,-1.115112 0.952774,-1.924784 0,-0.198951 -0.02865,-0.385785 -0.07287,-0.56931 -0.01658,-0.05701 -0.0293,-0.114673 -0.04588,-0.168676 -0.02211,-0.05398 -0.02917,-0.114672 -0.05128,-0.168692 2.078418,-0.30536 3.803474,-0.642385 5.222713,-0.994015 z" />
</g>
<g
   id="g6"
   transform="translate(-0.14537533,-13.782893)">
</g>
<g
   id="g8"
   transform="translate(-0.14537533,-13.782893)">
</g>
<g
   id="g10"
   transform="translate(-0.14537533,-13.782893)">
</g>
<g
   id="g12"
   transform="translate(-0.14537533,-13.782893)">
</g>
<g
   id="g14"
   transform="translate(-0.14537533,-13.782893)">
</g>
<g
   id="g16"
   transform="translate(-0.14537533,-13.782893)">
</g>
<g
   id="g18"
   transform="translate(-0.14537533,-13.782893)">
</g>
<g
   id="g20"
   transform="translate(-0.14537533,-13.782893)">
</g>
<g
   id="g22"
   transform="translate(-0.14537533,-13.782893)">
</g>
<g
   id="g24"
   transform="translate(-0.14537533,-13.782893)">
</g>
<g
   id="g26"
   transform="translate(-0.14537533,-13.782893)">
</g>
<g
   id="g28"
   transform="translate(-0.14537533,-13.782893)">
</g>
<g
   id="g30"
   transform="translate(-0.14537533,-13.782893)">
</g>
<g
   id="g32"
   transform="translate(-0.14537533,-13.782893)">
</g>
<g
   id="g34"
   transform="translate(-0.14537533,-13.782893)">
</g>
</svg>
