<?xml version='1.0' encoding='utf-8'?>
<!DOCTYPE svg PUBLIC '-//W3C//DTD SVG 1.1//EN' 'http://www.w3.org/Graphics/SVG/1.1/DTD/svg11.dtd'>
<svg version="1.1" xmlns="http://www.w3.org/2000/svg" viewBox="0 0 512 512" xmlns:xlink="http://www.w3.org/1999/xlink" enable-background="new 0 0 512 512">
  <g>
    <g>
      <path d="m256,154.4c39.5,0 71.7-32.2 71.7-71.7 0-39.5-32.1-71.7-71.7-71.7-39.5,0-71.7,32.2-71.7,71.7 0,39.5 32.2,71.7 71.7,71.7z"/>
      <path d="m428.1,218.2c-0.5-42.9-6.2-85.8-17.3-128.4-1.9-7.3-7.7-12.9-15-14.7-9.4-2.2-18.8-4.2-28.2-6 0.5,4.4 0.9,9 0.9,13.5 0,62-50.5,112.5-112.5,112.5s-112.5-50.4-112.5-112.4c0-4.6 0.4-9.1 0.9-13.5-9.4,1.8-18.8,3.7-28.2,6-7.3,1.8-13.1,7.4-15,14.7-11.1,42.6-16.8,85.5-17.3,128.4l165.8,81.7 178.4-81.8z"/>
      <path d="m410.8,358.8c8.1-31.1 13.3-62.4 15.7-93.8l-177.4,81.3-163.5-80.4c2.5,31.1 7.6,62.1 15.6,93 1.9,7.3 7.7,12.9 15,14.7 15.7,3.8 31.5,6.7 47.3,9.1l-61.3,86.1c-6.5,9.2-4.4,21.9 4.8,28.5 3.6,2.6 16.3,9.1 28.5-4.8l23.2-32.5h194.3c0.1,0 0.3,0 0.4,0l23.2,32.5c10.4,13.8 24.9,7.3 28.5,4.8 9.2-6.5 11.3-19.3 4.8-28.5l-61.3-86.1c15.8-2.5 31.5-5.4 47.3-9.1 7.2-1.8 13-7.5 14.9-14.8zm-223.1,60.3l22-30.9c15.4,1.2 77.1,1.2 92.6,0l22,30.9h-136.6z"/>
    </g>
  </g>
</svg>
